<svg version="1" xmlns="http://www.w3.org/2000/svg" width="800" height="800" viewBox="0 0 600.000000 600.000000"><path d="M290.9 4.5c-.3.2-7.3 1.3-15.7 2.4-18.2 2.5-26.6 4.5-45 11-15.2 5.4-24 9.5-44.7 21.3-7.7 4.4-15.1 8.6-16.5 9.3-1.4.7-5.2 5-8.4 9.5-3.9 5.4-11.4 13.2-21.5 22.5-15.4 14.1-26.9 26.5-32.5 35.2-2.7 4.1-2.8 4.7-1.7 7.8 1.1 3 .8 4.4-2.3 13.5-2 5.5-5.2 16.5-7.1 24.4-3.2 13.1-3.4 14.6-2.2 17.7 1.1 2.7 1.3 10.4 1.2 36.4-.2 25.5 0 34 1.1 37.5.7 2.5 1.8 9.4 2.4 15.5.6 6 2 14.8 3.2 19.5 3 12.6 3.1 13.1 3.1 18 0 2.5-.4 15.5-.8 29-1.1 33.5.8 46.8 6.2 43.4.9-.5 2.2-1.9 2.9-3 1.2-1.7 1-2.4-1.1-5.4-3.4-4.9-5.5-13.9-5.5-23.8 0-7.1.6-10.1 3.7-19.3 2.1-6 4-10.9 4.3-10.9 1.1 0 7 8.7 9.5 14.2 3.1 6.7 3.2 9.2.2 4.7-3.3-4.9-6.3-4.6-10.2.9-2.7 4-3 5.1-3 12 .1 10.7 4.2 18.1 10.2 18.2 1.2 0 2.9.7 3.8 1.6.8.9 2.4 1.4 3.4 1.1 1.8-.4 1.9 1.1 2.4 30.7.5 32.5 1.7 45.3 6.2 68.1 3.3 16.3 7.4 24.1 22.4 42.9 31.9 39.8 51.6 57.9 77.1 71 21.9 11.2 39.6 15.5 68 16.3 26.9.8 44.4-1.9 62.8-9.8 26.1-11.1 47.5-29.1 68.9-58 22-29.4 33.7-50.7 38.1-68.9 4.9-20.4 9.2-56.9 9.2-78.1v-9.8l3.2-.3c5.2-.5 7.3-5.2 7.3-16.3 0-7.4-.4-9.9-2.3-13.7-1.9-3.8-2.1-5.1-1.2-6.8 1.5-2.8 2.5-1.9 4.9 4.6 1.4 3.6 2.1 7.9 2.1 12.3 0 8.9-2.6 22.7-5.1 26.7-2.3 3.8-2.4 5.8-.3 7.8 2 2.1 2.7 1.6 5.5-4.1 2.3-4.6 2.4-5.8 2.4-24.3-.1-12.7-.6-21.6-1.5-25.5-1.6-7.3-1.6-8.8-.1-24.5 1.4-15.5 2.8-22.4 5.3-27.3 1.3-2.6 1.8-5.5 1.7-9-.1-2.9.3-12.2 1.1-20.7 2.1-26.1-.1-78.7-4-93.8-3.1-12.2-10.7-29.2-19.4-43.7-2-3.3-3.6-7.2-3.6-8.6 0-3.7-4.3-9.6-18.1-24.9-6.7-7.4-13-14.8-13.9-16.3-2.3-3.7-26-23.2-37.4-30.8-12.9-8.5-26.8-15.4-40.8-20.1l-12.3-4.1-22.5-.8c-17.5-.6-24.3-1.3-30.4-2.8-7.7-2.1-11.8-2.6-12.7-1.6zM250.6 150c2.2.5 8.6.6 14.4.3 9.5-.5 11.1-.4 15.5 1.6s6 2.2 13.5 1.6l8.5-.6 4 4c2.1 2.3 4.6 4.1 5.5 4.1.8 0 2.4-1.9 3.5-4.2 3.1-6.5 4.9-7 9.1-2.6 1.9 2.1 4.1 3.8 4.9 3.8.8 0 3.5-1.4 5.9-3.2 6.4-4.4 12.9-4.1 29.3 1.5 8.3 2.9 9.5 3 12.6 1.9 2.1-.7 8-1.2 14.4-1.2 5.9 0 11.9 0 13.3-.1 4.5-.3 12.4.2 21.5 1.3 7.6.9 9.5.9 12-.4 3-1.6 14.5-4.8 17-4.8.9 0 2.4 3.2 4 8.2 7.1 22.6 13.5 83.1 13.5 128.8 0 11.4.6 24.6 1.5 31.5.8 6.6 1.8 19 2.1 27.5.6 13.4.4 17.1-1.5 27.8-4.2 23.4-7 29.1-23.8 48.7-20.5 23.7-28.1 35.3-29.7 45-1.4 8.2-1.8 9.5-3.5 10.5-1.3.6-2.4.5-3.6-.4-1.7-1.2-1.9-3.7-2.5-23.7-.6-19.5-.9-23-2.7-27-3.9-8.7-17.3-16-47-25.6l-17.8-5.7-26.5-.4c-39.7-.7-50.7-.6-59 .7-14.1 2.2-39.5 8.3-44.6 10.7-17.1 8.1-22.7 22.3-19 48.3.9 6.2 1.3 11.7 1 12.2-.3.5-1.9.9-3.5.9-3.5 0-4-1-6.9-13.4-2.5-11-5.5-15.2-18.5-26.5-15.6-13.5-23.2-27.4-28.1-51.1-3.4-16.2-4.6-34.3-3.4-52.5.5-8.3 1.4-26.7 2-41 2.6-68.1 8.4-123.2 13.6-131.3 1.8-2.7 7.2-3 11.3-.6 2.5 1.5 3.2 1.5 9.5-.5 3.7-1.1 7.9-1.8 9.2-1.5 1.3.3 4.6.1 7.4-.6 3.9-.9 6.1-.9 9.9 0 4.2 1 5.4.9 8.1-.5 1.8-.9 6.2-2.1 9.9-2.5 7.4-.9 27.8-.3 33.7 1zm84.1 272.5c19.6 2.6 43.9 12.1 52.1 20.3 6.5 6.5 7.7 10.1 7.6 23.2 0 9.3-.5 12.8-2.3 18-5.1 14.8-18 29-32.3 35.9-10.6 5-18.8 7.6-22.1 6.7-4.2-1-9.7-6.9-9.7-10.3 0-3.6 1.5-5 5.9-5.9 4.8-1 6.1-3.7 6.1-12.7 0-13.4-2.1-14.2-42.5-15.3-26.3-.7-32.6-.1-34 3.4-.4.9-.9 5.2-1.2 9.5-.7 8.7.1 10.4 6.8 13.8 2 1 3.9 2.7 4.1 3.7.8 3.1-1.8 8-5.4 10.2-6.8 4.1-11 2.3-25.2-11.1-12.1-11.5-19.1-20.5-24.1-31-5.9-12.4-8.1-28-5.1-35.3 2.7-6.4 15-15.5 25.5-18.6 17.3-5.2 22.9-5.8 54.3-5.9 21.4-.1 33 .3 41.5 1.4z"/><path d="M196.7 239.6c-12.3 2.7-21.5 7.3-29.5 14.8-6.8 6.4-9.9 15.2-8.6 24.8l.7 4.8 6.5-6.1c19.8-18.6 52.8-22 88.8-9.4 14.3 5 21.8 4.6 24.9-1.4 4-7.9.2-15.2-11-20.9-6.2-3.1-10.7-4.1-27.5-6.2-18.1-2.3-34.7-2.4-44.3-.4zM383 241.1c-23.4 2.8-35.2 7.3-40 15.1-3.8 6.3-1.6 13.8 4.7 16.5 4.4 1.8 7.3 1.4 21.3-3.2 27.1-8.8 47.8-9.6 67-2.6 9.2 3.4 14.8 6.8 21.6 13.3l5.2 4.9.7-4.1c.4-2.3.4-6.6 0-9.5-1.8-14.4-18.5-27-41-30.9-11.3-2-19.9-1.9-39.5.5z"/><path d="M215.8 273c-5.7 1-14.1 3.7-18.3 5.8-3.8 1.9-17.5 15.1-17.5 16.9 0 2.4 1.5 1.4 8.5-5.9 10.9-11.2 21.5-14.8 43.6-14.9 10.7-.1 12.4.2 17.6 2.6 3.1 1.4 8 4.4 10.9 6.5 4.9 3.9 7.4 4.9 7.4 3.2 0-1.2-10.6-8.9-16.5-12-4.6-2.4-6.1-2.7-18-2.8-7.1-.2-15.1.1-17.7.6zM378.5 273.9c-8.2 2.2-23.4 11.9-23.5 14.8 0 1.9.2 1.8 8.4-4.1 11-7.9 15.1-9 31-8.3 21 .9 30.9 4.7 40.3 15.3 5 5.6 8.3 7.9 8.3 5.6 0-1.6-13-14.1-17.2-16.6-6.9-4-18.7-6.6-32.3-7.1-6.6-.2-13.3-.1-15 .4z"/><path d="M221.5 279.1c-7.4 1.2-13 3.4-21.8 8.6-12.1 7.1-11.8 8.1 4.6 14.2 18.1 6.8 23.8 7.2 42.9 3.1 5.2-1.1 10.7-1.7 14-1.4 6.1.6 10.1-1 10.6-4.2.4-2.6-2.1-4.8-8.6-7.3-3-1.2-8.9-4.4-13.1-7.1-10.3-6.6-16.7-7.9-28.6-5.9zm29.4 11.1c4.1 2.7 9 5.6 11 6.5l3.6 1.6-7 .8c-3.8.3-8.8 1.2-11 1.8-6.2 1.7-7.8 1.5-6.5-.8 1.5-2.9 1.2-10.8-.6-14.2-1.5-3-1.5-3 .8-1.8 1.3.7 5.6 3.4 9.7 6.1zm-37.7-.2c-.2 2.8.1 6.4.7 8 .5 1.7.6 3 .1 3-2.3 0-16.9-6.3-16.4-7.1.5-.9 14.4-8.9 15.4-8.9.3 0 .3 2.3.2 5zM376.8 283.5c-7.4 4.1-12.2 6.5-20 9.9-5.2 2.2-5.8 2.8-5.8 5.4 0 3.8 1.4 4.4 11.5 5.2 4.4.4 13.3 1.9 19.8 3.4 13.9 3.1 18.1 2.7 35.8-3 9.9-3.2 13.9-5.3 13.9-7.3 0-2.4-15.2-11.5-24.4-14.6-5.6-1.9-9.5-2.5-15.9-2.5-7.9 0-9 .3-14.9 3.5zm5.6 3.7c-1.2 2.4-1.5 4.8-1.1 9.5.5 6.9.4 7-5.3 5.2-1.9-.6-6.9-1.6-11-2.3l-7.5-1.3 3.7-1.6c2-.9 7.8-4.2 13-7.2 5.1-3 9.4-5.5 9.5-5.5.2 0-.4 1.4-1.3 3.2zm37 5.4c3.1 2 5.6 4 5.6 4.5 0 .9-15.9 6.3-16.6 5.7-.2-.3.1-1.9.7-3.6.6-1.8.9-5.2.8-7.6-.4-4.1-.3-4.3 1.8-3.5 1.2.4 4.7 2.5 7.7 4.5zM260 315.6c-11.9 3.9-31.1 8.4-35.5 8.4-5.8 0-14.3-1.6-27.2-5.2-11.1-3.1-15.7-3.2-13.4-.4 1.2 1.4 15.1 5.6 26.9 8.1 13 2.7 22.1 1.7 42.7-4.5 13.4-4.1 15.5-5 15.5-6.6 0-2.3-1.3-2.3-9 .2zM353.5 316c-1 1.6 3.6 3.7 16 7.3 24.6 7.2 30.7 7.5 53.2 2.8 13.9-2.9 18.3-4.3 18.3-6 0-1.9-3.1-1.9-10.1-.1-26.9 6.9-37.4 6.6-64.9-2-10.3-3.3-11.6-3.5-12.5-2zM354 355.5c0 .3 1.7 3 3.7 6.1 6.8 10.3 5.5 22.5-2.8 25.8-5.2 2.1-7.6 2-8.9-.4-1.7-3.2-10.5-2.7-19 1-3.8 1.7-9.5 3.3-12.7 3.6-7.4.8-16.5-1-20.1-4-4.4-3.7-8.8-5.6-13.1-5.6-5.2 0-7.1.8-7.1 3.1 0 1.5-.7 1.9-3.9 1.9-4.7 0-9-3.2-11.5-8.4-2.3-4.9-2-8.7 1.4-15.1 3.1-5.9 3.2-7.7.2-5.9-3.2 1.9-6.2 9.4-6.2 15.5 0 4.6.5 6.3 3 9.7 5.3 7.4 11.8 9.8 18.2 6.8 5.3-2.5 15.3-2.3 21.3.4 7 3.3 17 3.7 26.4 1.3 5.5-1.5 8.4-1.8 11.5-1.1 9.5 2 17.5 2.1 22.2.3 4-1.5 4.9-2.4 7.1-7.2 2-4.4 2.4-6.5 2-10.3-.9-7.6-6.9-18-10.4-18-.7 0-1.3.2-1.3.5zM224.8 441.5c-2 .7-3.9 1.1-4.2.8-1.1-1.1-.6 1.7.8 5.2.8 1.8 2.5 4.1 3.8 4.9 3.9 2.5 21.8 8.4 29.7 9.8 6.3 1.1 8 1 14.3-.6 8-2.1 12-2.2 20.7-.7 3.4.6 8.9 1.6 12.2 2.2 4.5.8 10.1.7 20.6-.1 14-1.2 14.7-1.1 21.6 1.1 6.6 2.1 7.7 2.2 16.8 1.2 7.4-.8 11-1.8 14.9-3.9 6.5-3.5 13.2-9.3 12.4-10.6-.9-1.4-8.6-4.8-9.6-4.2-.4.3-.8 1.6-.8 3 0 3.5-4.5 7.8-7.4 7-1.6-.4-2.9.1-4.2 1.5-1.4 1.5-2.7 2-4.9 1.6-2.3-.4-4 .2-7 2.4-2.1 1.6-4.5 2.9-5.2 2.9-.8 0-2.3-1.6-3.5-3.6-1.5-2.5-2.5-3.3-3.7-2.8-3.1 1.2-9.8 1.6-11.7.6-1.4-.7-2.6-.6-4.4.4-3.2 1.7-7.3 1.7-13.3-.1-3.7-1.1-5.9-1.2-10-.4-6.4 1.3-13.1-.2-14.7-3.2-1-1.8-1.3-1.8-3.3-.4-2.7 1.9-9.6 2-12.3.1-1.9-1.3-2.2-1.2-4.8 2-3.1 4-6.9 4.5-8.6 1.3-.9-1.5-1.8-1.9-3.5-1.5-1.8.5-2.7.1-3.5-1.4-1-1.8-1.3-1.9-2.6-.5-2.1 2-3 1.9-4.7-.6-.9-1.3-1.7-1.6-2.2-1-2.3 3.9-9-2.3-10.1-9.4-.7-5-1.4-5.3-7.6-3z"/></svg>